<?xml version="1.0" encoding="UTF-8"?>
<svg version="1.1" xmlns="http://www.w3.org/2000/svg" width="198" height="176">
<path d="M0 0 C1.24007812 0.00515625 2.48015625 0.0103125 3.7578125 0.015625 C5.61019531 0.00789063 5.61019531 0.00789063 7.5 0 C15.08394906 0.59550639 23.61618247 6.99899497 28.8828125 12.265625 C29.56988281 11.8325 30.25695312 11.399375 30.96484375 10.953125 C31.86589844 10.39625 32.76695312 9.839375 33.6953125 9.265625 C34.58863281 8.70875 35.48195313 8.151875 36.40234375 7.578125 C38.8828125 6.265625 38.8828125 6.265625 41.8828125 6.265625 C42.4190625 5.605625 42.9553125 4.945625 43.5078125 4.265625 C46.61384144 1.65002169 48.59979817 1.69717059 52.5625 1.8671875 C57.15777514 2.65627515 60.59646127 4.97927377 63.8828125 8.265625 C64.8728125 8.595625 65.8628125 8.925625 66.8828125 9.265625 C67.8728125 10.255625 67.8728125 10.255625 68.8828125 11.265625 C69.8728125 11.760625 69.8728125 11.760625 70.8828125 12.265625 C73.30504716 13.47674233 74.62360711 14.48935239 75.49511719 17.09936523 C76.21990234 21.14912508 76.10948115 25.22472377 76.1328125 29.328125 C76.16375 30.69420898 76.16375 30.69420898 76.1953125 32.08789062 C76.20304687 33.39983398 76.20304687 33.39983398 76.2109375 34.73828125 C76.2202832 35.53500244 76.22962891 36.33172363 76.23925781 37.15258789 C75.79140011 39.80752513 75.03159523 40.68135564 72.8828125 42.265625 C69.74609375 42.55859375 69.74609375 42.55859375 66.1953125 42.453125 C64.42607422 42.41251953 64.42607422 42.41251953 62.62109375 42.37109375 C61.71746094 42.33628906 60.81382812 42.30148438 59.8828125 42.265625 C59.8828125 42.925625 59.8828125 43.585625 59.8828125 44.265625 C60.65367187 44.17023437 61.42453125 44.07484375 62.21875 43.9765625 C63.22164062 43.86570313 64.22453125 43.75484375 65.2578125 43.640625 C66.25554687 43.52460937 67.25328125 43.40859375 68.28125 43.2890625 C69.56902344 43.27746094 69.56902344 43.27746094 70.8828125 43.265625 C71.5428125 43.925625 72.2028125 44.585625 72.8828125 45.265625 C73.5634375 45.554375 74.2440625 45.843125 74.9453125 46.140625 C76.8828125 47.265625 76.8828125 47.265625 77.5703125 48.953125 C77.725 50.0978125 77.725 50.0978125 77.8828125 51.265625 C78.1096875 52.461875 78.3365625 53.658125 78.5703125 54.890625 C78.725 56.56125 78.725 56.56125 78.8828125 58.265625 C77.8928125 59.255625 77.8928125 59.255625 76.8828125 60.265625 C76.5528125 60.925625 76.2228125 61.585625 75.8828125 62.265625 C72.9128125 62.265625 69.9428125 62.265625 66.8828125 62.265625 C66.91310547 63.02891113 66.94339844 63.79219727 66.97460938 64.57861328 C67.48598505 77.699333 67.98117952 90.82160837 68.0703125 103.953125 C68.08320313 104.87174316 68.09609375 105.79036133 68.109375 106.73681641 C68.11272319 108.91439333 68.00843759 111.09167219 67.8828125 113.265625 C67.2228125 113.925625 66.5628125 114.585625 65.8828125 115.265625 C65.6146875 115.925625 65.3465625 116.585625 65.0703125 117.265625 C63.43375934 120.02192506 61.90594032 120.30115215 58.8828125 121.265625 C56.19403076 121.48353577 56.19403076 121.48353577 53.26074219 121.44165039 C52.15478699 121.43247086 51.04883179 121.42329132 49.90936279 121.41383362 C48.71981995 121.39715134 47.5302771 121.38046906 46.3046875 121.36328125 C43.75521083 121.35921247 41.20572991 121.35733189 38.65625 121.35742188 C34.65987114 121.34936663 30.66686416 121.3286307 26.67089844 121.26928711 C5.83259093 120.93754823 5.83259093 120.93754823 -12.85839844 129.13452148 C-15.96093903 131.16344543 -18.57358314 132.26391162 -22.1171875 133.265625 C-23.1071875 133.595625 -24.0971875 133.925625 -25.1171875 134.265625 C-27.30859375 134.28515625 -27.30859375 134.28515625 -29.6796875 134.078125 C-30.46472656 134.02269531 -31.24976563 133.96726563 -32.05859375 133.91015625 C-34.1171875 133.265625 -34.1171875 133.265625 -35.39453125 131.71484375 C-36.4424374 128.16329155 -36.24044807 124.96344216 -36.1171875 121.265625 C-37.39335938 121.28882812 -38.66953125 121.31203125 -39.984375 121.3359375 C-41.65364 121.35469329 -43.3229113 121.37289369 -44.9921875 121.390625 C-46.25482422 121.41576172 -46.25482422 121.41576172 -47.54296875 121.44140625 C-48.34863281 121.44785156 -49.15429688 121.45429687 -49.984375 121.4609375 C-50.72800293 121.47141113 -51.47163086 121.48188477 -52.23779297 121.49267578 C-54.89955336 121.17110691 -55.82220394 119.57289954 -57.6171875 117.703125 C-59.07654685 116.16262198 -59.07654685 116.16262198 -61.1171875 115.265625 C-62.22915795 109.13509286 -62.2496664 103.07431784 -62.21484375 96.859375 C-62.2134288 95.8940686 -62.21201385 94.92876221 -62.21055603 93.9342041 C-62.2049983 90.87797835 -62.1924538 87.82182827 -62.1796875 84.765625 C-62.17466703 82.68229273 -62.17010508 80.5989593 -62.16601562 78.515625 C-62.15504274 73.43226291 -62.13780761 68.34895674 -62.1171875 63.265625 C-64.4271875 62.935625 -66.7371875 62.605625 -69.1171875 62.265625 C-69.6121875 60.780625 -69.6121875 60.780625 -70.1171875 59.265625 C-70.7771875 59.265625 -71.4371875 59.265625 -72.1171875 59.265625 C-72.17118486 57.80769616 -72.20997927 56.34919788 -72.2421875 54.890625 C-72.27699219 53.67246094 -72.27699219 53.67246094 -72.3125 52.4296875 C-72.1171875 50.265625 -72.1171875 50.265625 -70.1171875 48.265625 C-69.7871875 47.605625 -69.4571875 46.945625 -69.1171875 46.265625 C-67.6321875 45.770625 -67.6321875 45.770625 -66.1171875 45.265625 C-65.7871875 44.605625 -65.4571875 43.945625 -65.1171875 43.265625 C-63.6321875 42.770625 -63.6321875 42.770625 -62.1171875 42.265625 C-61.4571875 41.605625 -60.7971875 40.945625 -60.1171875 40.265625 C-58.1171875 38.265625 -58.1171875 38.265625 -55.1171875 37.265625 C-54.7871875 36.605625 -54.4571875 35.945625 -54.1171875 35.265625 C-52.6321875 34.770625 -52.6321875 34.770625 -51.1171875 34.265625 C-50.1271875 33.770625 -50.1271875 33.770625 -49.1171875 33.265625 C-49.22417969 32.00105469 -49.33117187 30.73648437 -49.44140625 29.43359375 C-49.56333415 27.77349855 -49.68438217 26.11333857 -49.8046875 24.453125 C-49.87751953 23.61974609 -49.95035156 22.78636719 -50.02539062 21.92773438 C-50.08017578 21.12529297 -50.13496094 20.32285156 -50.19140625 19.49609375 C-50.27781372 18.38850708 -50.27781372 18.38850708 -50.3659668 17.25854492 C-50.1171875 15.265625 -50.1171875 15.265625 -48.80004883 13.5637207 C-46.01205208 11.41316526 -43.50076509 11.14244021 -40.10546875 11.16796875 C-38.96948242 11.17280273 -38.96948242 11.17280273 -37.81054688 11.17773438 C-36.63202148 11.19030273 -36.63202148 11.19030273 -35.4296875 11.203125 C-34.23375977 11.20989258 -34.23375977 11.20989258 -33.01367188 11.21679688 C-31.04814493 11.2285665 -29.08265665 11.24650152 -27.1171875 11.265625 C-26.6221875 12.255625 -26.6221875 12.255625 -26.1171875 13.265625 C-25.4571875 13.925625 -24.7971875 14.585625 -24.1171875 15.265625 C-19.85792921 13.13599585 -16.17803957 10.12441001 -12.4921875 7.140625 C-10.1171875 5.265625 -10.1171875 5.265625 -8.1171875 4.265625 C-1.97063578 0.16792385 -1.97063578 0.16792385 0 0 Z M48.8828125 7.265625 C47.87157762 8.25426245 46.87310444 9.25601029 45.8828125 10.265625 C43.98046875 11.328125 43.98046875 11.328125 41.9453125 12.265625 C38.9761126 13.68496781 36.486162 15.24079761 33.8828125 17.265625 C32.8928125 17.595625 31.9028125 17.925625 30.8828125 18.265625 C30.82900672 21.05754705 30.78923581 23.8484391 30.7578125 26.640625 C30.74105469 27.4346875 30.72429687 28.22875 30.70703125 29.046875 C30.68945777 31.12054515 30.77946082 33.19445741 30.8828125 35.265625 C33.46312554 37.84593804 34.61897171 37.48617578 38.1953125 37.578125 C43.5093973 37.93193482 43.5093973 37.93193482 46.8203125 40.890625 C47.5009375 41.674375 48.1815625 42.458125 48.8828125 43.265625 C51.13288535 43.37108869 51.13288535 43.37108869 52.8828125 42.265625 C53.2128125 41.605625 53.5428125 40.945625 53.8828125 40.265625 C55.8203125 39.703125 55.8203125 39.703125 57.8828125 39.265625 C58.5428125 38.935625 59.2028125 38.605625 59.8828125 38.265625 C62.18090786 37.95692562 64.48001379 37.75678852 66.7890625 37.546875 C68.93725183 37.37347 68.93725183 37.37347 70.8828125 36.265625 C70.8828125 30.325625 70.8828125 24.385625 70.8828125 18.265625 C69.8928125 18.265625 68.9028125 18.265625 67.8828125 18.265625 C66.62631431 20.77862137 67.06504113 21.78994091 67.5703125 24.515625 C67.97988673 28.03682569 67.84727197 29.36209216 66.5703125 32.828125 C63.05577881 36.01572533 60.82469507 35.87333664 56.22265625 35.76953125 C53.50593938 35.18446201 52.70081968 34.28863002 50.8828125 32.265625 C50.2228125 32.265625 49.5628125 32.265625 48.8828125 32.265625 C48.5528125 33.255625 48.2228125 34.245625 47.8828125 35.265625 C46.2328125 35.265625 44.5828125 35.265625 42.8828125 35.265625 C42.8828125 34.275625 42.8828125 33.285625 42.8828125 32.265625 C39.5828125 32.265625 36.2828125 32.265625 32.8828125 32.265625 C33.49871939 25.737012 33.49871939 25.737012 35.2578125 23.578125 C35.7940625 23.145 36.3303125 22.711875 36.8828125 22.265625 C37.88924198 20.93713809 38.88973429 19.60412171 39.8828125 18.265625 C42.4482719 15.7001656 44.35967918 15.72516413 47.8828125 15.265625 C47.8828125 19.225625 47.8828125 23.185625 47.8828125 27.265625 C48.5428125 27.265625 49.2028125 27.265625 49.8828125 27.265625 C49.97369141 26.32589844 49.97369141 26.32589844 50.06640625 25.3671875 C50.15019531 24.54992187 50.23398438 23.73265625 50.3203125 22.890625 C50.40152344 22.07851563 50.48273438 21.26640625 50.56640625 20.4296875 C50.8828125 18.265625 50.8828125 18.265625 51.8828125 16.265625 C54.16796875 15.8515625 54.16796875 15.8515625 56.9453125 15.640625 C58.32396484 15.52847656 58.32396484 15.52847656 59.73046875 15.4140625 C60.79587891 15.34058594 60.79587891 15.34058594 61.8828125 15.265625 C60.05344337 11.06067701 58.14472596 10.02053054 53.8828125 8.265625 C51.29866824 7.29655673 51.29866824 7.29655673 48.8828125 7.265625 Z M3.8828125 16.265625 C3.2228125 16.925625 2.5628125 17.585625 1.8828125 18.265625 C0.21614583 19.265625 -1.45052083 20.265625 -3.1171875 21.265625 C-3.7771875 21.925625 -4.4371875 22.585625 -5.1171875 23.265625 C-7.2579336 24.96345812 -9.39154643 26.42893389 -11.7421875 27.828125 C-14.19330121 29.18254663 -14.19330121 29.18254663 -16.1171875 31.265625 C-18.2579336 32.96345812 -20.39154643 34.42893389 -22.7421875 35.828125 C-25.19330121 37.18254663 -25.19330121 37.18254663 -27.1171875 39.265625 C-29.6171875 40.765625 -29.6171875 40.765625 -32.1171875 42.265625 C-32.7771875 42.925625 -33.4371875 43.585625 -34.1171875 44.265625 C-35.0453125 44.94625 -35.0453125 44.94625 -35.9921875 45.640625 C-38.19872253 47.24550063 -38.19872253 47.24550063 -40.1796875 49.390625 C-42.1171875 51.265625 -42.1171875 51.265625 -45.1171875 52.265625 C-45.16777082 59.4921572 -45.20287162 66.71864399 -45.22705078 73.9453125 C-45.23712733 76.40529079 -45.25078881 78.86525706 -45.26806641 81.32519531 C-45.29224211 84.85484785 -45.3036539 88.38434247 -45.3125 91.9140625 C-45.32282257 93.01930267 -45.33314514 94.12454285 -45.34378052 95.26327515 C-45.34393158 96.28418243 -45.34408264 97.30508972 -45.34423828 98.35693359 C-45.3486795 99.25850189 -45.35312073 100.16007019 -45.35769653 101.08895874 C-45.32349888 103.47609416 -45.32349888 103.47609416 -43.1171875 105.265625 C-40.81995464 105.49391361 -40.81995464 105.49391361 -38.1796875 105.35546875 C-37.20257813 105.33548828 -36.22546875 105.31550781 -35.21875 105.29492188 C-33.15092247 105.23372043 -31.08320679 105.16861557 -29.015625 105.09960938 C-28.03851563 105.08091797 -27.06140625 105.06222656 -26.0546875 105.04296875 C-25.15621094 105.01452881 -24.25773437 104.98608887 -23.33203125 104.95678711 C-22.23568359 105.10966187 -22.23568359 105.10966187 -21.1171875 105.265625 C-18.99210506 108.45324865 -18.6151712 110.53074723 -18.1171875 114.265625 C-17.62089844 113.93949219 -17.12460938 113.61335938 -16.61328125 113.27734375 C-12.22658476 110.45554088 -7.95796352 108.20193541 -3.1171875 106.265625 C-2.4571875 105.935625 -1.7971875 105.605625 -1.1171875 105.265625 C0.44562498 105.19070158 2.01169876 105.17920671 3.57617188 105.19970703 C4.55058228 105.20946564 5.52499268 105.21922424 6.52893066 105.22927856 C7.58414917 105.24385101 8.63936768 105.25842346 9.7265625 105.2734375 C11.94400587 105.2909506 14.16145407 105.30785918 16.37890625 105.32421875 C19.88831805 105.35524063 23.39749147 105.39081822 26.90673828 105.43701172 C30.28421074 105.47918866 33.66139953 105.5027452 37.0390625 105.5234375 C38.62189026 105.55136887 38.62189026 105.55136887 40.23669434 105.5798645 C41.21110474 105.58331879 42.18551514 105.58677307 43.18945312 105.59033203 C44.04945923 105.60001007 44.90946533 105.60968811 45.79553223 105.61965942 C46.82873596 105.44441238 46.82873596 105.44441238 47.8828125 105.265625 C50.06781957 101.9881144 50.14632486 100.96052449 50.20166016 97.15161133 C50.22152985 96.11075882 50.24139954 95.06990631 50.26187134 93.99751282 C50.27342255 92.87556015 50.28497375 91.75360748 50.296875 90.59765625 C50.31624115 89.44770676 50.3356073 88.29775726 50.3555603 87.11296082 C50.41541011 83.43475801 50.46176356 79.756524 50.5078125 76.078125 C50.54598726 73.58657478 50.58503869 71.09503783 50.625 68.60351562 C50.72111612 62.49100306 50.80614788 56.37841079 50.8828125 50.265625 C48.9028125 49.935625 46.9228125 49.605625 44.8828125 49.265625 C43.8928125 45.800625 43.8928125 45.800625 42.8828125 42.265625 C42.07457031 42.32363281 41.26632813 42.38164063 40.43359375 42.44140625 C39.36496094 42.48652344 38.29632813 42.53164063 37.1953125 42.578125 C36.13957031 42.63613281 35.08382812 42.69414063 33.99609375 42.75390625 C30.8828125 42.265625 30.8828125 42.265625 28.0078125 40.390625 C24.96343102 35.91359341 25.32786451 32.23103124 25.5703125 26.953125 C25.59287109 26.02177734 25.61542969 25.09042969 25.63867188 24.13085938 C25.69739172 21.8407854 25.77944392 19.55404625 25.8828125 17.265625 C24.8928125 16.770625 24.8928125 16.770625 23.8828125 16.265625 C23.5528125 20.225625 23.2228125 24.185625 22.8828125 28.265625 C21.5628125 27.275625 20.2428125 26.285625 18.8828125 25.265625 C17.57922714 24.4388979 16.26665527 23.6261637 14.9453125 22.828125 C12.4649211 21.30386213 10.28873032 19.78777629 8.0078125 17.953125 C6.07403166 16.05833095 6.07403166 16.05833095 3.8828125 16.265625 Z M66.8828125 16.265625 C67.8828125 18.265625 67.8828125 18.265625 67.8828125 18.265625 Z M57.8828125 21.265625 C56.52662751 22.39096605 56.52662751 22.39096605 56.8203125 25.328125 C56.8409375 26.2975 56.8615625 27.266875 56.8828125 28.265625 C59.3578125 28.760625 59.3578125 28.760625 61.8828125 29.265625 C61.8828125 26.955625 61.8828125 24.645625 61.8828125 22.265625 C59.93677976 21.67492486 59.93677976 21.67492486 57.8828125 21.265625 Z M41.8828125 23.265625 C41.8828125 24.255625 41.8828125 25.245625 41.8828125 26.265625 C40.8928125 26.760625 40.8928125 26.760625 39.8828125 27.265625 C40.8728125 27.265625 41.8628125 27.265625 42.8828125 27.265625 C42.5528125 25.945625 42.2228125 24.625625 41.8828125 23.265625 Z M49.8828125 27.265625 C50.8828125 29.265625 50.8828125 29.265625 50.8828125 29.265625 Z " fill="#252B34" transform="translate(102.1171875,-0.265625)"/>
<path d="M0 0 C1.03125 0.433125 2.0625 0.86625 3.125 1.3125 C6.56203379 3.3298894 6.86047609 4.27402642 8 8 C8.31884766 10.86254883 8.31884766 10.86254883 8.4140625 13.95703125 C8.45273438 15.06884766 8.49140625 16.18066406 8.53125 17.32617188 C8.5621875 18.47666016 8.593125 19.62714844 8.625 20.8125 C8.66367188 21.98232422 8.70234375 23.15214844 8.7421875 24.35742188 C8.8362513 27.23812564 8.92189877 30.11882654 9 33 C8.34 33 7.68 33 7 33 C7.33 33.99 7.66 34.98 8 36 C3.89683663 40.33111689 1.53277331 42.81581751 -4.51171875 43.25537109 C-5.90358322 43.26988193 -7.29556126 43.2753907 -8.6875 43.2734375 C-10.20573662 43.29372008 -11.72396575 43.31457074 -13.2421875 43.3359375 C-15.62539023 43.35855973 -18.00829627 43.37502033 -20.39160156 43.38085938 C-22.69910666 43.39038271 -25.00529108 43.42414507 -27.3125 43.4609375 C-28.37827271 43.45336929 -28.37827271 43.45336929 -29.46557617 43.44564819 C-32.8876836 43.51364631 -34.65132454 43.7116919 -37.328125 45.92504883 C-37.87984375 46.60978271 -38.4315625 47.2945166 -39 48 C-40.62772955 49.16080072 -42.29652843 50.26600756 -44 51.3125 C-44.845625 51.84488281 -45.69125 52.37726563 -46.5625 52.92578125 C-49 54 -49 54 -51.25 53.73046875 C-53 53 -53 53 -54 52 C-54.07179964 50.48071962 -54.08392007 48.95832518 -54.0625 47.4375 C-54.05347656 46.61121094 -54.04445313 45.78492188 -54.03515625 44.93359375 C-54.02355469 44.29550781 -54.01195313 43.65742187 -54 43 C-54.83192871 43.06900513 -54.83192871 43.06900513 -55.68066406 43.1394043 C-58.20276602 43.33903115 -60.72600635 43.51349463 -63.25 43.6875 C-64.12269531 43.76033203 -64.99539062 43.83316406 -65.89453125 43.90820312 C-72.40909976 44.33090414 -72.40909976 44.33090414 -75.44140625 42.6328125 C-75.95574219 42.09398437 -76.47007813 41.55515625 -77 41 C-77.886875 40.401875 -78.77375 39.80375 -79.6875 39.1875 C-83.07775331 35.98050362 -82.91987103 32.9665833 -83.10571289 28.40551758 C-83.17041409 25.3736957 -83.18560824 22.34498683 -83.1875 19.3125 C-83.19974609 18.26771484 -83.21199219 17.22292969 -83.22460938 16.14648438 C-83.22654297 15.14552734 -83.22847656 14.14457031 -83.23046875 13.11328125 C-83.23457764 12.20360596 -83.23868652 11.29393066 -83.24291992 10.35668945 C-82.81201513 6.17626332 -79.97810142 3.71532776 -77 1 C-73.47308298 -1.26374826 -70.41431968 -1.28409239 -66.27539062 -1.35058594 C-65.27465767 -1.37047325 -65.27465767 -1.37047325 -64.25370789 -1.39076233 C-62.05459807 -1.43175071 -59.85558639 -1.4585525 -57.65625 -1.484375 C-56.12454374 -1.50817676 -54.59284609 -1.53253789 -53.06115723 -1.55743408 C-49.85348784 -1.60730594 -46.64582094 -1.65010372 -43.43798828 -1.68798828 C-39.32860763 -1.73712871 -35.21975266 -1.80425429 -31.1107254 -1.87673569 C-27.9486768 -1.93045381 -24.78654969 -1.97441144 -21.62431335 -2.01544952 C-20.10922223 -2.03632702 -18.59417032 -2.06028714 -17.07917786 -2.08739471 C-14.96097604 -2.12387304 -12.84302366 -2.14714999 -10.72460938 -2.16699219 C-9.51977905 -2.18316589 -8.31494873 -2.1993396 -7.0736084 -2.21600342 C-4.05675325 -2.00398844 -2.54389046 -1.53576387 0 0 Z M-62.6875 15.125 C-64.33005175 17.04780647 -64.33005175 17.04780647 -63.75 20.125 C-63.29066476 22.87790841 -63.29066476 22.87790841 -62 24 C-59.66702567 24.04092937 -57.33294775 24.04241723 -55 24 C-53.38050989 21.42786866 -52.95591249 20.32330841 -53.375 17.25 C-53.58125 16.5075 -53.7875 15.765 -54 15 C-58.52213905 13.76286099 -58.52213905 13.76286099 -62.6875 15.125 Z M-41.75 15.375 C-42.86375 16.179375 -42.86375 16.179375 -44 17 C-43.38722388 19.96175123 -42.74627478 21.38058783 -41 24 C-37.06924356 23.42547254 -37.06924356 23.42547254 -34 21 C-34.00922702 18.45286596 -34.00922702 18.45286596 -35 16 C-37.7378695 13.65325472 -38.49530139 13.7476507 -41.75 15.375 Z M-23 17 C-23.33 17.99 -23.66 18.98 -24 20 C-23.34 20 -22.68 20 -22 20 C-21.34 21.32 -20.68 22.64 -20 24 C-17.58354218 24.16687448 -17.58354218 24.16687448 -15 24 C-12.65026182 22.10244856 -12.65026182 22.10244856 -12.875 18.875 C-12.91625 17.92625 -12.9575 16.9775 -13 16 C-17.53609341 13.58075018 -19.03772139 13.54898314 -23 17 Z " fill="#25282E" transform="translate(142,50)"/>
<path d="M0 0 C2.75264123 1.3220993 5.05041787 3.0458987 7.4375 4.9375 C8.06076172 5.40607422 8.68402344 5.87464844 9.32617188 6.35742188 C13.55705915 9.55705915 13.55705915 9.55705915 15 11 C15.07205511 12.68608966 15.08386068 14.37500659 15.0625 16.0625 C15.05347656 16.98160156 15.04445313 17.90070312 15.03515625 18.84765625 C15.02355469 19.55792969 15.01195313 20.26820312 15 21 C13.31086973 19.94009367 11.62378609 18.87692554 9.9375 17.8125 C8.93332031 17.18085938 7.92914063 16.54921875 6.89453125 15.8984375 C4.51876998 14.34024589 2.3361949 12.71233936 0.125 10.9375 C-0.90625 10.298125 -1.9375 9.65875 -3 9 C-7.76674725 10.16059933 -11.38322703 13.3625067 -15.1875 16.3125 C-16.61608559 17.4024874 -18.0458164 18.4909751 -19.4765625 19.578125 C-20.5888623 20.42407227 -20.5888623 20.42407227 -21.72363281 21.28710938 C-26.12856859 24.60167709 -30.61343867 27.80559671 -35.0925293 31.01879883 C-36.52394285 32.04693541 -37.93770306 33.09993243 -39.33642578 34.17211914 C-41.51258312 35.6655096 -43.50707881 36.76016444 -45.86279297 37.90405273 C-50.3337511 40.2802998 -54.20869025 42.67688672 -57 47 C-59.50413459 55.66089835 -58.45010516 65.04910143 -58 73.9375 C-57.93325104 76.4067253 -57.87329119 78.876144 -57.8203125 81.34570312 C-57.84705888 92.78816574 -57.84705888 92.78816574 -56 104 C-52.97230685 104.86111516 -50.15733363 105.18230893 -47.015625 105.31640625 C-46.08105469 105.35830078 -45.14648438 105.40019531 -44.18359375 105.44335938 C-43.21550781 105.48267578 -42.24742188 105.52199219 -41.25 105.5625 C-39.77466797 105.62727539 -39.77466797 105.62727539 -38.26953125 105.69335938 C-35.84651073 105.79921949 -33.42327328 105.90009312 -31 106 C-31 109.63 -31 113.26 -31 117 C-29.78642822 116.21753906 -28.57285645 115.43507813 -27.32250977 114.62890625 C-12.72155663 105.79081839 -0.74192802 104.53508938 16.0625 105 C19.44682523 105.04870227 22.83057358 105.08164559 26.2151947 105.1003418 C28.29778093 105.11641486 30.38033634 105.15208513 32.46217346 105.21020508 C33.39512741 105.22591553 34.32808136 105.24162598 35.28930664 105.2578125 C36.10532852 105.2798877 36.9213504 105.30196289 37.76210022 105.32470703 C40.6826679 104.90094862 41.96946131 104.14119494 44 102 C44.57700351 99.43305725 44.57700351 99.43305725 44.45068359 96.49047852 C44.45103607 95.36243301 44.45138855 94.23438751 44.45175171 93.07215881 C44.43415802 91.85338547 44.41656433 90.63461212 44.3984375 89.37890625 C44.40317299 86.80924388 44.40839635 84.23958236 44.4140625 81.66992188 C44.40341237 77.60981932 44.37531623 73.5499433 44.33984375 69.48999023 C44.30784023 65.5777731 44.32275584 61.66623292 44.3359375 57.75390625 C44.30347427 55.92878258 44.30347427 55.92878258 44.27035522 54.06678772 C44.28881213 50.93038376 44.35245195 48.06885542 45 45 C47.94162617 42.17205986 49.61051699 41.2403658 53.57421875 40.5546875 C58.28820027 41.42005609 61.79126133 44.56500412 65 48 C65.5625 51.4375 65.5625 51.4375 65 54 C62.59454362 55.20272819 61.05003047 55.10071472 58.375 55.0625 C57.14910156 55.04896484 57.14910156 55.04896484 55.8984375 55.03515625 C55.27195313 55.02355469 54.64546875 55.01195312 54 55 C54.0199855 55.99811958 54.0199855 55.99811958 54.04037476 57.0164032 C54.17313075 63.94294909 54.26361787 70.86913363 54.32958984 77.79663086 C54.35976055 80.38174112 54.40070299 82.96674904 54.45263672 85.55151367 C54.5254326 89.26767215 54.5594552 92.98247734 54.5859375 96.69921875 C54.61690521 97.85459641 54.64787292 99.00997406 54.67977905 100.20036316 C54.68187974 105.2100169 54.64532583 108.07251389 51.73803711 112.25097656 C46.92712711 115.28961596 41.06108119 114.48081963 35.60546875 114.28515625 C33.0957248 114.25770691 30.58595679 114.23239027 28.07617188 114.20898438 C24.16158653 114.14560699 20.24987548 114.0644496 16.33666992 113.94213867 C-2.71505919 113.40205318 -16.19122648 116.08097109 -32.61650085 126.02684021 C-35.5293872 127.2161437 -37.03934822 126.94257248 -40 126 C-41 125 -41 125 -41.09765625 122.49609375 C-41.08605469 121.48675781 -41.07445312 120.47742188 -41.0625 119.4375 C-41.05347656 118.42558594 -41.04445312 117.41367188 -41.03515625 116.37109375 C-41.02355469 115.58863281 -41.01195312 114.80617188 -41 114 C-42.86205078 114.05220703 -42.86205078 114.05220703 -44.76171875 114.10546875 C-46.40363226 114.13361584 -48.04556046 114.16091501 -49.6875 114.1875 C-50.50412109 114.21263672 -51.32074219 114.23777344 -52.16210938 114.26367188 C-56.9425753 114.32173421 -60.14632382 114.16104605 -64 111 C-66.21717015 107.67424478 -66.24543438 106.6639376 -66.22705078 102.79418945 C-66.22682419 101.20287956 -66.22682419 101.20287956 -66.22659302 99.579422 C-66.21627045 98.43559555 -66.20594788 97.2917691 -66.1953125 96.11328125 C-66.1924826 94.94113571 -66.18965271 93.76899017 -66.18673706 92.56132507 C-66.17552753 88.81161357 -66.15042128 85.06213951 -66.125 81.3125 C-66.11497121 78.7727899 -66.10584519 76.23307607 -66.09765625 73.69335938 C-66.07558567 67.46215835 -66.04210039 61.23109614 -66 55 C-66.62648438 55.02320313 -67.25296875 55.04640625 -67.8984375 55.0703125 C-68.71570313 55.08835938 -69.53296875 55.10640625 -70.375 55.125 C-71.18710938 55.14820313 -71.99921875 55.17140625 -72.8359375 55.1953125 C-75 55 -75 55 -77 53 C-76.8366148 49.94284711 -76.45837313 48.46130391 -74.28173828 46.27075195 C-73.55196777 45.76503662 -72.82219727 45.25932129 -72.0703125 44.73828125 C-70.87728516 43.89620117 -70.87728516 43.89620117 -69.66015625 43.03710938 C-68.40525391 42.18342773 -68.40525391 42.18342773 -67.125 41.3125 C-66.29613281 40.73177734 -65.46726562 40.15105469 -64.61328125 39.55273438 C-61.43308372 37.33070621 -58.22799181 35.15199454 -55 33 C-54.50919927 30.89449011 -54.50919927 30.89449011 -54.5234375 28.46484375 C-54.47703125 27.12776367 -54.47703125 27.12776367 -54.4296875 25.76367188 C-54.41164063 24.83103516 -54.39359375 23.89839844 -54.375 22.9375 C-54.32420404 21.09233668 -54.26971864 19.24726995 -54.2109375 17.40234375 C-54.18459229 16.17245728 -54.18459229 16.17245728 -54.15771484 14.91772461 C-54 13 -54 13 -53 12 C-50.85605481 11.9008243 -48.70873268 11.8702985 -46.5625 11.875 C-44.80099609 11.87113281 -44.80099609 11.87113281 -43.00390625 11.8671875 C-40 12 -40 12 -38 13 C-37.40644386 15.64860427 -37.25790731 18.29197322 -37 21 C-36.47680176 20.61255615 -35.95360352 20.2251123 -35.41455078 19.82592773 C-31.23780407 16.73495137 -27.05521386 13.65238831 -22.86328125 10.58203125 C-20.1463071 8.59055086 -17.44595104 6.58761728 -14.79296875 4.51171875 C-13.97441406 3.88910156 -13.15585938 3.26648438 -12.3125 2.625 C-11.31669922 1.83996094 -11.31669922 1.83996094 -10.30078125 1.0390625 C-6.84198979 -0.52297235 -3.67312999 -0.70102795 0 0 Z " fill="#2C7ECF" transform="translate(111,3)"/>
<path d="M0 0 C1.41843422 2.18675275 2.13386699 3.74956896 2.5 6.3125 C2.83 4.0025 3.16 1.6925 3.5 -0.6875 C6.14 -0.6875 8.78 -0.6875 11.5 -0.6875 C11.83 1.2925 12.16 3.2725 12.5 5.3125 C13.49 3.0025 14.48 0.6925 15.5 -1.6875 C18.8 -1.3575 22.1 -1.0275 25.5 -0.6875 C25.5 0.3025 25.5 1.2925 25.5 2.3125 C24.84 2.9725 24.18 3.6325 23.5 4.3125 C21.46336649 7.36745026 20.3707561 9.75691261 19.5 13.3125 C20.1501992 15.52984114 20.1501992 15.52984114 21.5 17.3125 C22.16 18.3025 22.82 19.2925 23.5 20.3125 C24.16 20.9725 24.82 21.6325 25.5 22.3125 C25.83 14.7225 26.16 7.1325 26.5 -0.6875 C29.14 -0.6875 31.78 -0.6875 34.5 -0.6875 C35.16 1.2925 35.82 3.2725 36.5 5.3125 C38.00559539 3.34867993 39.39131683 1.52986634 40.5 -0.6875 C41.17804687 -0.67589844 41.85609375 -0.66429687 42.5546875 -0.65234375 C48.30778964 -0.59656575 53.73319254 -0.86474804 59.40625 -1.859375 C61.5 -1.6875 61.5 -1.6875 63.28125 0.171875 C64.5 2.3125 64.5 2.3125 64.5 4.3125 C65.16 4.3125 65.82 4.3125 66.5 4.3125 C67.16 2.6625 67.82 1.0125 68.5 -0.6875 C72.13 -0.6875 75.76 -0.6875 79.5 -0.6875 C78.52255466 4.1997267 77.42171502 6.41687998 74.5 10.3125 C73.84 10.6425 73.18 10.9725 72.5 11.3125 C73.49 14.7775 73.49 14.7775 74.5 18.3125 C75.16 18.3125 75.82 18.3125 76.5 18.3125 C78.23565302 21.6328797 79.68174726 24.65816735 80.5 28.3125 C70.61659193 29.23267937 70.61659193 29.23267937 67.87890625 26.9765625 C66.8125 25.3125 66.8125 25.3125 65.5 22.3125 C63.33333333 23.14583333 63.33333333 23.14583333 62.5 25.3125 C61.51 26.7975 61.51 26.7975 60.5 28.3125 C58.52880859 28.65307617 58.52880859 28.65307617 56.1484375 28.60546875 C54.87226563 28.5909668 54.87226563 28.5909668 53.5703125 28.57617188 C52.68085937 28.55103516 51.79140625 28.52589844 50.875 28.5 C49.52921875 28.47969727 49.52921875 28.47969727 48.15625 28.45898438 C45.93690211 28.42356925 43.71874812 28.37418461 41.5 28.3125 C41.04625 27.343125 40.5925 26.37375 40.125 25.375 C38.84213779 22.24170418 38.84213779 22.24170418 36.5 21.3125 C36.5 20.6525 36.5 19.9925 36.5 19.3125 C35.84 19.3125 35.18 19.3125 34.5 19.3125 C34.995 20.3025 34.995 20.3025 35.5 21.3125 C35.54022391 23.6454866 35.54320247 25.97956666 35.5 28.3125 C32.2480657 28.34788606 29.00154402 28.30598388 25.75 28.25 C24.82960937 28.26095703 23.90921875 28.27191406 22.9609375 28.28320312 C20.29753989 28.21565319 18.05135986 28.08932015 15.5 27.3125 C13.37715055 25.06863461 12.65855924 23.24551922 11.5 20.3125 C11.5 22.6225 11.5 24.9325 11.5 27.3125 C8.86 27.3125 6.22 27.3125 3.5 27.3125 C3.17 25.0025 2.84 22.6925 2.5 20.3125 C1.51 22.6225 0.52 24.9325 -0.5 27.3125 C-4.13 27.3125 -7.76 27.3125 -11.5 27.3125 C-11.125 24.375 -11.125 24.375 -10.5 21.3125 C-9.84 20.9825 -9.18 20.6525 -8.5 20.3125 C-5.98295974 16.66564417 -5.98295974 16.66564417 -5.77734375 12.4140625 C-6.61660999 9.97338556 -7.75653934 7.91247001 -9.0625 5.6875 C-11.5 1.53063031 -11.5 1.53063031 -11.5 -0.6875 C-3.38256926 -2.28323425 -3.38256926 -2.28323425 0 0 Z M48 4.625 C45.08816639 7.75522113 43.36094683 10.15125698 42.5 14.3125 C43.49 14.6425 44.48 14.9725 45.5 15.3125 C46.0625 17.25 46.0625 17.25 46.5 19.3125 C47.16 19.9725 47.82 20.6325 48.5 21.3125 C49.16 21.9725 49.82 22.6325 50.5 23.3125 C52.5480428 23.2174261 52.5480428 23.2174261 54.5 22.3125 C57.67951168 17.69464217 57.67951168 17.69464217 58.25 12.3125 C58.0025 11.6525 57.755 10.9925 57.5 10.3125 C57.21125 9.466875 56.9225 8.62125 56.625 7.75 C55.50957697 5.3332501 54.57505493 3.95525182 52.5 2.3125 C50.17711095 2.08615267 50.17711095 2.08615267 48 4.625 Z M-3.5 12.3125 C-2.5 14.3125 -2.5 14.3125 -2.5 14.3125 Z M59.5 12.3125 C60.5 14.3125 60.5 14.3125 60.5 14.3125 Z M34.5 16.3125 C34.5 16.9725 34.5 17.6325 34.5 18.3125 C35.16 17.9825 35.82 17.6525 36.5 17.3125 C35.84 16.9825 35.18 16.6525 34.5 16.3125 Z " fill="#286DB4" transform="translate(11.5,144.6875)"/>
<path d="M0 0 C1.24007812 0.00515625 2.48015625 0.0103125 3.7578125 0.015625 C5.61019531 0.00789063 5.61019531 0.00789063 7.5 0 C15.08394906 0.59550639 23.61618247 6.99899497 28.8828125 12.265625 C29.56988281 11.8325 30.25695312 11.399375 30.96484375 10.953125 C31.86589844 10.39625 32.76695312 9.839375 33.6953125 9.265625 C34.58863281 8.70875 35.48195313 8.151875 36.40234375 7.578125 C38.8828125 6.265625 38.8828125 6.265625 41.8828125 6.265625 C42.4190625 5.605625 42.9553125 4.945625 43.5078125 4.265625 C46.61384144 1.65002169 48.59979817 1.69717059 52.5625 1.8671875 C57.15777514 2.65627515 60.59646127 4.97927377 63.8828125 8.265625 C64.8728125 8.595625 65.8628125 8.925625 66.8828125 9.265625 C66.8621875 10.338125 66.8415625 11.410625 66.8203125 12.515625 C66.87059895 15.53281183 67.1455555 17.44037006 67.8828125 20.265625 C68.1193857 21.78232205 68.32725976 23.30374397 68.5078125 24.828125 C68.60320312 25.59253906 68.69859375 26.35695313 68.796875 27.14453125 C68.8828125 29.265625 68.8828125 29.265625 67.8828125 32.265625 C65.64951525 34.49892225 63.93643918 36.13583041 60.7265625 36.53125 C59.953125 36.52609375 59.1796875 36.5209375 58.3828125 36.515625 C57.22265625 36.52335937 57.22265625 36.52335937 56.0390625 36.53125 C53.8828125 36.265625 53.8828125 36.265625 50.8828125 34.265625 C50.8828125 33.605625 50.8828125 32.945625 50.8828125 32.265625 C50.2228125 32.265625 49.5628125 32.265625 48.8828125 32.265625 C48.5528125 33.585625 48.2228125 34.905625 47.8828125 36.265625 C46.2328125 35.935625 44.5828125 35.605625 42.8828125 35.265625 C42.8828125 34.275625 42.8828125 33.285625 42.8828125 32.265625 C39.5828125 32.265625 36.2828125 32.265625 32.8828125 32.265625 C32.7578125 28.890625 32.7578125 28.890625 32.8828125 25.265625 C33.5428125 24.605625 34.2028125 23.945625 34.8828125 23.265625 C36.43410458 21.24220054 37.85211053 19.32218127 39.0703125 17.078125 C41.94434864 14.20408886 44.90197898 14.52666326 48.8828125 14.265625 C48.87121094 15.12027344 48.85960937 15.97492187 48.84765625 16.85546875 C48.83863281 17.96019531 48.82960938 19.06492187 48.8203125 20.203125 C48.80871094 21.30527344 48.79710937 22.40742188 48.78515625 23.54296875 C48.57018679 26.18010134 48.57018679 26.18010134 49.8828125 27.265625 C49.85960937 26.65074219 49.83640625 26.03585938 49.8125 25.40234375 C49.79445313 24.59410156 49.77640625 23.78585938 49.7578125 22.953125 C49.73460937 22.15261719 49.71140625 21.35210938 49.6875 20.52734375 C49.8828125 18.265625 49.8828125 18.265625 51.8828125 15.265625 C54.046875 14.75390625 54.046875 14.75390625 56.5078125 14.578125 C57.32507813 14.51238281 58.14234375 14.44664063 58.984375 14.37890625 C59.61085938 14.34152344 60.23734375 14.30414063 60.8828125 14.265625 C58.9573481 12.0420182 58.9573481 12.0420182 55.8828125 11.265625 C54.8928125 10.275625 54.8928125 10.275625 53.8828125 9.265625 C52.23289668 8.55851822 50.56718994 7.88618511 48.8828125 7.265625 C48.5528125 8.255625 48.2228125 9.245625 47.8828125 10.265625 C45.484375 11.80078125 45.484375 11.80078125 42.5078125 13.328125 C39.51270002 14.88099994 36.69296184 16.39219211 33.8828125 18.265625 C31.3828125 17.890625 31.3828125 17.890625 28.8828125 17.265625 C27.8928125 17.265625 26.9028125 17.265625 25.8828125 17.265625 C24.23035587 15.88295721 22.58307218 14.49341257 20.96875 13.06640625 C18.68077155 11.09120388 16.35746324 9.21272656 13.9453125 7.390625 C13.17316406 6.79507812 12.40101562 6.19953125 11.60546875 5.5859375 C7.92364107 3.80048878 4.83613634 3.38232592 0.8828125 4.265625 C-2.3376374 5.91588165 -5.09150919 8.03307155 -7.9296875 10.265625 C-8.71142334 10.85561279 -9.49315918 11.44560059 -10.29858398 12.0534668 C-11.8589736 13.23185165 -13.41389949 14.41751128 -14.96289062 15.61083984 C-17.83399101 17.81622497 -20.75063701 19.95034617 -23.6796875 22.078125 C-24.52660156 22.70332031 -25.37351562 23.32851563 -26.24609375 23.97265625 C-28.1171875 25.265625 -28.1171875 25.265625 -29.1171875 25.265625 C-29.1171875 22.295625 -29.1171875 19.325625 -29.1171875 16.265625 C-34.0671875 16.265625 -39.0171875 16.265625 -44.1171875 16.265625 C-44.4471875 22.865625 -44.7771875 29.465625 -45.1171875 36.265625 C-45.4471875 36.265625 -45.7771875 36.265625 -46.1171875 36.265625 C-46.4471875 32.305625 -46.7771875 28.345625 -47.1171875 24.265625 C-47.4471875 24.265625 -47.7771875 24.265625 -48.1171875 24.265625 C-48.1171875 21.625625 -48.1171875 18.985625 -48.1171875 16.265625 C-48.7771875 15.935625 -49.4371875 15.605625 -50.1171875 15.265625 C-47.71419904 12.6337805 -45.90706749 11.37250752 -42.21606445 11.15209961 C-41.17131958 11.15995483 -41.17131958 11.15995483 -40.10546875 11.16796875 C-38.96948242 11.17280273 -38.96948242 11.17280273 -37.81054688 11.17773438 C-36.63202148 11.19030273 -36.63202148 11.19030273 -35.4296875 11.203125 C-34.63240234 11.20763672 -33.83511719 11.21214844 -33.01367188 11.21679688 C-31.04814493 11.2285665 -29.08265665 11.24650152 -27.1171875 11.265625 C-26.7871875 11.925625 -26.4571875 12.585625 -26.1171875 13.265625 C-25.4571875 13.925625 -24.7971875 14.585625 -24.1171875 15.265625 C-19.85792921 13.13599585 -16.17803957 10.12441001 -12.4921875 7.140625 C-10.1171875 5.265625 -10.1171875 5.265625 -8.1171875 4.265625 C-1.97063578 0.16792385 -1.97063578 0.16792385 0 0 Z M57.8828125 21.265625 C56.52662751 22.39096605 56.52662751 22.39096605 56.8203125 25.328125 C56.8409375 26.2975 56.8615625 27.266875 56.8828125 28.265625 C59.3578125 28.760625 59.3578125 28.760625 61.8828125 29.265625 C61.8828125 26.955625 61.8828125 24.645625 61.8828125 22.265625 C59.93677976 21.67492486 59.93677976 21.67492486 57.8828125 21.265625 Z M41.8828125 23.265625 C41.8828125 24.255625 41.8828125 25.245625 41.8828125 26.265625 C40.8928125 26.760625 40.8928125 26.760625 39.8828125 27.265625 C40.8728125 27.265625 41.8628125 27.265625 42.8828125 27.265625 C42.5528125 25.945625 42.2228125 24.625625 41.8828125 23.265625 Z M49.8828125 27.265625 C50.8828125 29.265625 50.8828125 29.265625 50.8828125 29.265625 Z " fill="#22252A" transform="translate(102.1171875,-0.265625)"/>
<path d="M0 0 C1.32421875 2.05078125 1.32421875 2.05078125 2 4 C2.66 4 3.32 4 4 4 C5.050838 7.4255664 5.10198207 10.55406592 5.0625 14.125 C5.05347656 15.17945313 5.04445312 16.23390625 5.03515625 17.3203125 C5.02355469 18.20460937 5.01195312 19.08890625 5 20 C5 20.66 5 21.32 5 22 C6.98 21.67 8.96 21.34 11 21 C11 22.98 11 24.96 11 27 C6.375 29.125 6.375 29.125 3 28 C2.3125 25.9375 2.3125 25.9375 2 24 C1.79375 24.639375 1.5875 25.27875 1.375 25.9375 C0 28 0 28 -2.5625 28.75 C-15.33098592 29.67861716 -15.33098592 29.67861716 -20 26 C-20.66 25.34 -21.32 24.68 -22 24 C-22.99 23.67 -23.98 23.34 -25 23 C-25 24.65 -25 26.3 -25 28 C-27.64 28 -30.28 28 -33 28 C-33 26.35 -33 24.7 -33 23 C-37.95 23.33 -42.9 23.66 -48 24 C-48 15.77777778 -48 15.77777778 -46 12 C-45.34 11.67 -44.68 11.34 -44 11 C-43.34 10.01 -42.68 9.02 -42 8 C-41.34 7.34 -40.68 6.68 -40 6 C-39.67 5.01 -39.34 4.02 -39 3 C-38.01 2.67 -37.02 2.34 -36 2 C-36 1.34 -36 0.68 -36 0 C-32.37 0 -28.74 0 -25 0 C-25 5.28 -25 10.56 -25 16 C-24.34 16 -23.68 16 -23 16 C-22.95101562 15.22914063 -22.90203125 14.45828125 -22.8515625 13.6640625 C-22.77679688 12.66117188 -22.70203125 11.65828125 -22.625 10.625 C-22.55539063 9.62726563 -22.48578125 8.62953125 -22.4140625 7.6015625 C-22 5 -22 5 -20 3 C-19.34 2.01 -18.68 1.02 -18 0 C-12.28499836 -1.45914935 -5.70082766 -1.55992797 0 0 Z M-13 9 C-13.44047137 11.33096118 -13.44047137 11.33096118 -13.3125 13.9375 C-13.30863281 14.81277344 -13.30476563 15.68804687 -13.30078125 16.58984375 C-13.15013081 19.25947847 -13.15013081 19.25947847 -11 22 C-8.13275314 21.42655063 -7.1385485 21.1385485 -5 19 C-3.73182191 14.35001367 -4.20416718 11.43676343 -6 7 C-10.04622502 6.63019987 -10.04622502 6.63019987 -13 9 Z M-34 10 C-34.66 11.98 -35.32 13.96 -36 16 C-35.01 16 -34.02 16 -33 16 C-33 14.02 -33 12.04 -33 10 C-33.33 10 -33.66 10 -34 10 Z M-22 19 C-21 21 -21 21 -21 21 Z " fill="#24272C" transform="translate(139,144)"/>
<path d="M0 0 C4.29 0 8.58 0 13 0 C13 0.66 13 1.32 13 2 C14.1446875 2.1546875 14.1446875 2.1546875 15.3125 2.3125 C18.17059424 3.04364039 19.15742885 3.76951913 21 6 C21 5.34 21 4.68 21 4 C24.05263664 3.01879536 25.94736336 3.01879536 29 4 C28.67 2.68 28.34 1.36 28 0 C30.64 0 33.28 0 36 0 C36 1.32 36 2.64 36 4 C38.31 4 40.62 4 43 4 C43.495 5.485 43.495 5.485 44 7 C44.66 7 45.32 7 46 7 C46.16682272 11.92127034 46.24828052 15.50343896 44 20 C40.04 20.495 40.04 20.495 36 21 C35.67 22.32 35.34 23.64 35 25 C33.02 24.67 31.04 24.34 29 24 C29 23.01 29 22.02 29 21 C26.36 21 23.72 21 21 21 C20.67 20.01 20.34 19.02 20 18 C19.34 17.34 18.68 16.68 18 16 C17.67 15.67 17.34 15.34 17 15 C17 15.66 17 16.32 17 17 C14.03 17 11.06 17 8 17 C8 19.64 8 22.28 8 25 C5.36 25 2.72 25 0 25 C0 16.75 0 8.5 0 0 Z M8 7 C8 8.65 8 10.3 8 12 C8.99 12 9.98 12 11 12 C11.33 10.35 11.66 8.7 12 7 C10.68 7 9.36 7 8 7 Z M26 9 C25.67 10.65 25.34 12.3 25 14 C26.98 14.99 26.98 14.99 29 16 C29 13.69 29 11.38 29 9 C28.01 9 27.02 9 26 9 Z M36 9 C36 11.31 36 13.62 36 16 C36.99 15.67 37.98 15.34 39 15 C39 13.35 39 11.7 39 10 C38.01 9.67 37.02 9.34 36 9 Z " fill="#25282C" transform="translate(151,148)"/>
<path d="M0 0 C0.99 0 1.98 0 3 0 C4.14851091 6.92149612 5.13461939 14.20373942 3 21 C-1.96156105 27.50966961 -10.28712256 32.42904085 -18 35 C-18.042721 36.66611905 -18.04063832 38.33382885 -18 40 C-16.41727399 41.58272601 -14.61965997 41.34735747 -12.4375 41.5625 C-11.61121094 41.64628906 -10.78492188 41.73007812 -9.93359375 41.81640625 C-8.97646484 41.90728516 -8.97646484 41.90728516 -8 42 C-7.99413376 42.65510559 -7.98826752 43.31021118 -7.98222351 43.98516846 C-7.9183305 50.79850368 -7.83392116 57.61136477 -7.73754883 64.42431641 C-7.70427746 66.96754712 -7.67625251 69.51085207 -7.65356445 72.05419922 C-7.62005994 75.70832989 -7.56774439 79.36177888 -7.51171875 83.015625 C-7.50532883 84.15429016 -7.4989389 85.29295532 -7.49235535 86.46612549 C-7.46266411 88.05732208 -7.46266411 88.05732208 -7.43237305 89.68066406 C-7.42126999 90.61332092 -7.41016693 91.54597778 -7.39872742 92.50689697 C-6.9241442 95.47429977 -6.06927347 96.84403538 -4 99 C-2.515 99.495 -2.515 99.495 -1 100 C-1 100.66 -1 101.32 -1 102 C4.61 102 10.22 102 16 102 C16 105.3 16 108.6 16 112 C15.01 112 14.02 112 13 112 C13 109.69 13 107.38 13 105 C11.72382812 105.02320312 10.44765625 105.04640625 9.1328125 105.0703125 C7.4635475 105.08906829 5.7942762 105.10726869 4.125 105.125 C2.86236328 105.15013672 2.86236328 105.15013672 1.57421875 105.17578125 C0.76855469 105.18222656 -0.03710938 105.18867187 -0.8671875 105.1953125 C-1.61081543 105.20578613 -2.35444336 105.21625977 -3.12060547 105.22705078 C-5.78236586 104.90548191 -6.70501644 103.30727454 -8.5 101.4375 C-9.95935935 99.89699698 -9.95935935 99.89699698 -12 99 C-13.11197045 92.86946786 -13.1324789 86.80869284 -13.09765625 80.59375 C-13.0962413 79.6284436 -13.09482635 78.66313721 -13.09336853 77.6685791 C-13.0878108 74.61235335 -13.0752663 71.55620327 -13.0625 68.5 C-13.05747953 66.41666773 -13.05291758 64.3333343 -13.04882812 62.25 C-13.03785524 57.16663791 -13.02062011 52.08333174 -13 47 C-15.31 46.67 -17.62 46.34 -20 46 C-20.495 44.515 -20.495 44.515 -21 43 C-21.66 43 -22.32 43 -23 43 C-23.05399736 41.54207116 -23.09279177 40.08357288 -23.125 38.625 C-23.15980469 37.40683594 -23.15980469 37.40683594 -23.1953125 36.1640625 C-23 34 -23 34 -21 32 C-20.67 31.34 -20.34 30.68 -20 30 C-19.01 29.67 -18.02 29.34 -17 29 C-16.67 28.34 -16.34 27.68 -16 27 C-15.01 26.67 -14.02 26.34 -13 26 C-12.34 25.34 -11.68 24.68 -11 24 C-9 22 -9 22 -6 21 C-5.67 20.34 -5.34 19.68 -5 19 C-4.01 18.67 -3.02 18.34 -2 18 C-1.34 17.67 -0.68 17.34 0 17 C0 11.39 0 5.78 0 0 Z " fill="#21232A" transform="translate(53,16)"/>
<path d="M0 0 C1.4375 2.1875 1.4375 2.1875 1.4375 4.1875 C2.0975 4.1875 2.7575 4.1875 3.4375 4.1875 C4.0975 2.5375 4.7575 0.8875 5.4375 -0.8125 C9.0675 -0.8125 12.6975 -0.8125 16.4375 -0.8125 C15.46005466 4.0747267 14.35921502 6.29187998 11.4375 10.1875 C10.7775 10.5175 10.1175 10.8475 9.4375 11.1875 C10.0975 13.4975 10.7575 15.8075 11.4375 18.1875 C12.0975 18.1875 12.7575 18.1875 13.4375 18.1875 C15.17315302 21.5078797 16.61924726 24.53316735 17.4375 28.1875 C7.55409193 29.10767937 7.55409193 29.10767937 4.81640625 26.8515625 C3.75 25.1875 3.75 25.1875 2.4375 22.1875 C0.27083333 23.02083333 0.27083333 23.02083333 -0.5625 25.1875 C-1.2225 26.1775 -1.8825 27.1675 -2.5625 28.1875 C-4.8725 27.8575 -7.1825 27.5275 -9.5625 27.1875 C-9.8925 26.1975 -10.2225 25.2075 -10.5625 24.1875 C-11.2225 24.1875 -11.8825 24.1875 -12.5625 24.1875 C-12.5625 23.5275 -12.5625 22.8675 -12.5625 22.1875 C-11.923125 22.084375 -11.28375 21.98125 -10.625 21.875 C-9.944375 21.648125 -9.26375 21.42125 -8.5625 21.1875 C-8.2325 20.1975 -7.9025 19.2075 -7.5625 18.1875 C-7.19125 17.548125 -6.82 16.90875 -6.4375 16.25 C-5.35267677 13.69291666 -5.59970034 12.75496575 -6.5625 10.1875 C-8.32872692 6.30180078 -9.9349414 3.6058724 -13.5625 1.1875 C-15.84162938 0.73355448 -15.84162938 0.73355448 -18.25 0.5625 C-19.05824219 0.48773438 -19.86648437 0.41296875 -20.69921875 0.3359375 C-21.31410156 0.28695312 -21.92898437 0.23796875 -22.5625 0.1875 C-22.5625 -0.1425 -22.5625 -0.4725 -22.5625 -0.8125 C-21.87285156 -0.80089844 -21.18320312 -0.78929687 -20.47265625 -0.77734375 C-15.75756745 -0.73206855 -11.28348201 -0.79385047 -6.625 -1.5625 C-3.29718173 -1.99785974 -2.89034898 -2.04439318 0 0 Z M-3.5625 12.1875 C-2.5625 14.1875 -2.5625 14.1875 -2.5625 14.1875 Z " fill="#2666A9" transform="translate(74.5625,144.8125)"/>
<path d="M0 0 C3.54867186 2.31506005 6.98038472 4.73813191 10.36328125 7.2890625 C11.05615234 7.8046875 11.74902344 8.3203125 12.46289062 8.8515625 C14.16251788 10.11749176 15.8571556 11.39011515 17.55078125 12.6640625 C17.22078125 14.3140625 16.89078125 15.9640625 16.55078125 17.6640625 C14.04146072 16.40940223 11.8287982 14.87930143 9.61328125 13.1640625 C7.61071838 11.62125026 7.61071838 11.62125026 5.42578125 10.6015625 C3.55078125 9.6640625 3.55078125 9.6640625 1.55078125 7.6640625 C0.89078125 7.3340625 0.23078125 7.0040625 -0.44921875 6.6640625 C-0.94421875 6.1690625 -0.94421875 6.1690625 -1.44921875 5.6640625 C-4.58925768 7.129414 -6.55028075 8.72766875 -8.94921875 11.2265625 C-10.44921875 12.6640625 -10.44921875 12.6640625 -12.44921875 13.6640625 C-13.78771546 14.65714071 -15.12073184 15.65763302 -16.44921875 16.6640625 C-17.43921875 17.3240625 -18.42921875 17.9840625 -19.44921875 18.6640625 C-20.78771546 19.65714071 -22.12073184 20.65763302 -23.44921875 21.6640625 C-25.75058933 23.40752506 -28.04439405 25.06084603 -30.44921875 26.6640625 C-31.10921875 27.1590625 -31.76921875 27.6540625 -32.44921875 28.1640625 C-34.0767595 29.38471806 -35.75647405 30.53556603 -37.44921875 31.6640625 C-38.08859375 32.1590625 -38.72796875 32.6540625 -39.38671875 33.1640625 C-41.37924762 34.61317441 -43.15103018 35.77444112 -45.44921875 36.6640625 C-46.43921875 36.3340625 -47.42921875 36.0040625 -48.44921875 35.6640625 C-47.09930509 32.51328241 -45.78646896 30.87743132 -42.984375 28.921875 C-41.92150269 28.16874023 -41.92150269 28.16874023 -40.8371582 27.40039062 C-40.06976318 26.86865234 -39.30236816 26.33691406 -38.51171875 25.7890625 C-36.88078154 24.63644733 -35.2505988 23.48276399 -33.62109375 22.328125 C-32.77353516 21.73032227 -31.92597656 21.13251953 -31.05273438 20.51660156 C-26.74859351 17.4539777 -22.50631829 14.30842764 -18.26171875 11.1640625 C-16.01177969 9.4988415 -13.76177369 7.8346091 -11.49853516 6.1875 C-10.14794997 5.183491 -8.82073357 4.1471418 -7.52099609 3.078125 C-3.12863667 -0.4291272 -3.12863667 -0.4291272 0 0 Z " fill="#22242C" transform="translate(108.44921875,11.3359375)"/>
<path d="M0 0 C0.33 0 0.66 0 1 0 C1.00586624 0.65510559 1.01173248 1.31021118 1.01777649 1.98516846 C1.0816695 8.79850368 1.16607884 15.61136477 1.26245117 22.42431641 C1.29572254 24.96754712 1.32374749 27.51085207 1.34643555 30.05419922 C1.37994006 33.70832989 1.43225561 37.36177888 1.48828125 41.015625 C1.49467117 42.15429016 1.5010611 43.29295532 1.50764465 44.46612549 C1.52743881 45.52692322 1.54723297 46.58772095 1.56762695 47.68066406 C1.57873001 48.61332092 1.58983307 49.54597778 1.60127258 50.50689697 C2.0758558 53.47429977 2.93072653 54.84403538 5 57 C5.99 57.33 6.98 57.66 8 58 C8 58.66 8 59.32 8 60 C13.61 60 19.22 60 25 60 C25 63.3 25 66.6 25 70 C24.01 70 23.02 70 22 70 C22 67.69 22 65.38 22 63 C20.72382812 63.02320313 19.44765625 63.04640625 18.1328125 63.0703125 C16.4635475 63.08906829 14.7942762 63.10726869 13.125 63.125 C11.86236328 63.15013672 11.86236328 63.15013672 10.57421875 63.17578125 C9.76855469 63.18222656 8.96289062 63.18867187 8.1328125 63.1953125 C7.01737061 63.21102295 7.01737061 63.21102295 5.87939453 63.22705078 C3.21763414 62.90548191 2.29498356 61.30727454 0.5 59.4375 C-0.95935935 57.89699698 -0.95935935 57.89699698 -3 57 C-4.59343875 49.14304416 -4.11050947 40.98406563 -4.0625 33 C-4.05747576 31.54297029 -4.05291449 30.0859389 -4.04882812 28.62890625 C-4.03789388 25.0859023 -4.02068 21.54296203 -4 18 C-2.515 18.99 -2.515 18.99 -1 20 C-0.67 13.4 -0.34 6.8 0 0 Z " fill="#232831" transform="translate(44,58)"/>
<path d="M0 0 C5.94 0 11.88 0 18 0 C18.33 3.63 18.66 7.26 19 11 C24.33821821 12.06764364 24.63058278 12.08800069 28.90014648 9.49902344 C45.96860666 -0.16751887 59.70837056 -1.53597959 79.0625 -0.75 C81.69453661 -0.68960165 84.32670993 -0.63488576 86.95898438 -0.5859375 C93.30905372 -0.45579169 99.65385224 -0.25677466 106 0 C106 0.33 106 0.66 106 1 C82.735 1.495 82.735 1.495 59 2 C59 2.33 59 2.66 59 3 C57.85789063 3.2371875 56.71578125 3.474375 55.5390625 3.71875 C50.71809081 4.92452363 46.68352275 7.07451867 42.375 9.5 C37.65483569 12.12884596 33.21611689 14.47034695 28 16 C27.01 16.33 26.02 16.66 25 17 C22.80859375 17.01953125 22.80859375 17.01953125 20.4375 16.8125 C19.65246094 16.75707031 18.86742188 16.70164063 18.05859375 16.64453125 C16 16 16 16 14.72265625 13.94921875 C14.48417969 13.30597656 14.24570313 12.66273438 14 12 C14.99 11.67 15.98 11.34 17 11 C17 7.7 17 4.4 17 1 C11.39 1 5.78 1 0 1 C0 0.67 0 0.34 0 0 Z " fill="#1F232F" transform="translate(52,117)"/>
<path d="M0 0 C1.00088654 0.02009628 2.00177307 0.04019257 3.0329895 0.06089783 C4.1163559 0.08793289 5.19972229 0.11496796 6.31591797 0.14282227 C7.42289032 0.16643326 8.52986267 0.19004425 9.67037964 0.21437073 C13.21641486 0.29112683 16.76223823 0.37509986 20.30810547 0.45922852 C22.70783458 0.51243723 25.10757413 0.5651777 27.50732422 0.61743164 C33.39938324 0.74675811 39.2912841 0.88201491 45.18310547 1.02172852 C45.18310547 1.35172852 45.18310547 1.68172852 45.18310547 2.02172852 C34.62310547 2.02172852 24.06310547 2.02172852 13.18310547 2.02172852 C13.18310547 2.68172852 13.18310547 3.34172852 13.18310547 4.02172852 C24.07310547 4.02172852 34.96310547 4.02172852 46.18310547 4.02172852 C46.18310547 4.35172852 46.18310547 4.68172852 46.18310547 5.02172852 C45.56336349 5.03203598 44.94362152 5.04234344 44.30509949 5.05296326 C37.86515682 5.16099457 31.42535503 5.27559543 24.9855957 5.39404297 C22.58100324 5.43740261 20.17637978 5.47907692 17.77172852 5.51904297 C14.31891531 5.5767204 10.86625828 5.64042237 7.41357422 5.70532227 C6.33536911 5.72203476 5.257164 5.73874725 4.14628601 5.75596619 C3.14547501 5.77591141 2.144664 5.79585663 1.11352539 5.81640625 C0.2319426 5.83195053 -0.6496402 5.84749481 -1.55793762 5.86351013 C-3.98460533 5.93920371 -3.98460533 5.93920371 -6.81689453 7.02172852 C-6.81689453 5.04172852 -6.81689453 3.06172852 -6.81689453 1.02172852 C-4.33518524 -0.21912613 -2.7728116 -0.06270177 0 0 Z " fill="#303A48" transform="translate(104.81689453125,103.978271484375)"/>
<path d="M0 0 C1.87229279 0.01273453 1.87229279 0.01273453 3.78240967 0.02572632 C7.72565115 0.05901475 11.66676325 0.13425551 15.609375 0.2109375 C18.30072923 0.24449735 20.99214047 0.26885162 23.68359375 0.29296875 C30.24290037 0.35872582 36.8009855 0.45882799 43.359375 0.5859375 C43.359375 0.9159375 43.359375 1.2459375 43.359375 1.5859375 C27.849375 1.9159375 12.339375 2.2459375 -3.640625 2.5859375 C-3.640625 2.9159375 -3.640625 3.2459375 -3.640625 3.5859375 C-4.775 3.8128125 -5.909375 4.0396875 -7.078125 4.2734375 C-10.59343796 5.11486879 -13.256016 6.44421937 -16.328125 8.3359375 C-20.26265446 10.67078803 -20.26265446 10.67078803 -23.703125 9.8984375 C-24.6621875 9.24875 -24.6621875 9.24875 -25.640625 8.5859375 C-25.640625 7.9259375 -25.640625 7.2659375 -25.640625 6.5859375 C-16.91362808 1.33089553 -10.11527967 -0.26437252 0 0 Z " fill="#211617" transform="translate(114.640625,116.4140625)"/>
<path d="M0 0 C-0.63288046 2.65716722 -1.31927586 4.48578547 -3.5390625 6.16259766 C-5.49486219 7.28933058 -7.47518382 8.31523072 -9.5 9.3125 C-10.18964844 9.67150391 -10.87929687 10.03050781 -11.58984375 10.40039062 C-16.67022321 13 -16.67022321 13 -19 13 C-19 9.37 -19 5.74 -19 2 C-17.68 1.67 -16.36 1.34 -15 1 C-14.67 2.32 -14.34 3.64 -14 5 C-13.24074219 4.55527344 -12.48148437 4.11054687 -11.69921875 3.65234375 C-10.70535156 3.08644531 -9.71148437 2.52054687 -8.6875 1.9375 C-7.70136719 1.36902344 -6.71523437 0.80054687 -5.69921875 0.21484375 C-3 -1 -3 -1 0 0 Z " fill="#262C37" transform="translate(99,107)"/>
<path d="M0 0 C0.33 0 0.66 0 1 0 C1 16.5 1 33 1 50 C0.67 50 0.34 50 0 50 C0 45.38 0 40.76 0 36 C-1.32 36.66 -2.64 37.32 -4 38 C-4 31.4 -4 24.8 -4 18 C-2.515 18.99 -2.515 18.99 -1 20 C-0.67 13.4 -0.34 6.8 0 0 Z " fill="#30435A" transform="translate(44,58)"/>
<path d="M0 0 C0.99 0 1.98 0 3 0 C3.23373107 3.37381807 3.37483519 6.74555001 3.5 10.125 C3.56703125 11.07632812 3.6340625 12.02765625 3.703125 13.0078125 C3.89634652 19.96378733 3.89634652 19.96378733 1.25390625 23.01855469 C-3.92361111 27 -3.92361111 27 -7 27 C-7.625 25.125 -7.625 25.125 -8 23 C-7.34 22.34 -6.68 21.68 -6 21 C-5.67 20.34 -5.34 19.68 -5 19 C-4.01 18.67 -3.02 18.34 -2 18 C-1.34 17.67 -0.68 17.34 0 17 C0 11.39 0 5.78 0 0 Z " fill="#2A2E39" transform="translate(53,16)"/>
<path d="M0 0 C0 6.6 0 13.2 0 20 C-0.33 20 -0.66 20 -1 20 C-1.33 24.29 -1.66 28.58 -2 33 C-2.33 33 -2.66 33 -3 33 C-3.69613269 23.31629705 -4.14973506 13.71614177 -4 4 C-5.32 3.67 -6.64 3.34 -8 3 C-8 2.34 -8 1.68 -8 1 C-5.10765685 0.17361624 -3.11257569 0 0 0 Z " fill="#232731" transform="translate(44,59)"/>
<path d="M0 0 C5.94 0 11.88 0 18 0 C18.33 3.63 18.66 7.26 19 11 C20.65 11.66 22.3 12.32 24 13 C24 14.32 24 15.64 24 17 C18.5388601 16.64766839 18.5388601 16.64766839 16 16 C14.5 13.9375 14.5 13.9375 14 12 C14.99 11.67 15.98 11.34 17 11 C17 7.7 17 4.4 17 1 C11.39 1 5.78 1 0 1 C0 0.67 0 0.34 0 0 Z " fill="#231D21" transform="translate(52,117)"/>
<path d="M0 0 C1.65 1.65 3.3 3.3 5 5 C3.63016497 8.16115776 3.0109362 8.9927092 0 11 C0 9.02 0 7.04 0 5 C-3.3 5 -6.6 5 -10 5 C-10.33 4.01 -10.66 3.02 -11 2 C-7.37 2 -3.74 2 0 2 C0 1.34 0 0.68 0 0 Z " fill="#32363C" transform="translate(145,37)"/>
<path d="M0 0 C-0.64046437 2.88208966 -1.34730626 4.56717555 -3.84375 6.22265625 C-9.33870968 9 -9.33870968 9 -12 9 C-12.33 7.35 -12.66 5.7 -13 4 C-11.40233897 3.13372601 -9.79660056 2.28233535 -8.1875 1.4375 C-7.29417969 0.96183594 -6.40085937 0.48617187 -5.48046875 -0.00390625 C-3 -1 -3 -1 0 0 Z " fill="#1E1F24" transform="translate(99,107)"/>
<path d="M0 0 C4.95 0 9.9 0 15 0 C15 3.3 15 6.6 15 10 C14.01 10 13.02 10 12 10 C12 7.69 12 5.38 12 3 C8.04 3 4.08 3 0 3 C0 2.01 0 1.02 0 0 Z " fill="#2B343D" transform="translate(54,118)"/>
<path d="M0 0 C0 1.65 0 3.3 0 5 C-4.625 7.125 -4.625 7.125 -8 6 C-7.25 3.0625 -7.25 3.0625 -6 0 C-3.40948545 -1.21430369 -2.56984526 -1.28492263 0 0 Z " fill="#2B70AE" transform="translate(150,166)"/>
<path d="M0 0 C1.984375 1.17578125 1.984375 1.17578125 4 3 C4.390625 5.48046875 4.390625 5.48046875 4.25 8.1875 C4.21390625 9.08855469 4.1778125 9.98960938 4.140625 10.91796875 C4.09421875 11.60503906 4.0478125 12.29210938 4 13 C2.05078125 12.28125 2.05078125 12.28125 0 11 C-0.64453125 8.90625 -0.64453125 8.90625 -0.8125 6.5 C-0.88082031 5.7059375 -0.94914063 4.911875 -1.01953125 4.09375 C-1 2 -1 2 0 0 Z " fill="#272A30" transform="translate(129,15)"/>
<path d="M0 0 C0.99 0.33 1.98 0.66 3 1 C2.67 8.92 2.34 16.84 2 25 C1.67 25 1.34 25 1 25 C0.67 21.04 0.34 17.08 0 13 C-0.33 13 -0.66 13 -1 13 C-1 10.36 -1 7.72 -1 5 C-1.66 4.67 -2.32 4.34 -3 4 C-2.505 3.525625 -2.01 3.05125 -1.5 2.5625 C0.11542197 1.24076302 0.11542197 1.24076302 0 0 Z " fill="#1E1E23" transform="translate(55,11)"/>
<path d="M0 0 C1.32 0.66 2.64 1.32 4 2 C4 3.65 4 5.3 4 7 C3.67 6.34 3.34 5.68 3 5 C-0.37088267 7.27415287 -0.37088267 7.27415287 -2 11 C0.64 11 3.28 11 6 11 C6 11.33 6 11.66 6 12 C3.03 12 0.06 12 -3 12 C-3.625 9.125 -3.625 9.125 -4 6 C-3.34 5.34 -2.68 4.68 -2 4 C-1.30251417 2.68252676 -0.63040043 1.35085807 0 0 Z " fill="#1C2023" transform="translate(139,19)"/>
<path d="M0 0 C1.65 0 3.3 0 5 0 C5.33 0.66 5.66 1.32 6 2 C6.66 2.33 7.32 2.66 8 3 C8.33 3.99 8.66 4.98 9 6 C7.68 6.99 6.36 7.98 5 9 C2.5 6.75 2.5 6.75 0 4 C0 2.68 0 1.36 0 0 Z " fill="#252A33" transform="translate(121,7)"/>
<path d="M0 0 C4.29 0 8.58 0 13 0 C13 0.33 13 0.66 13 1 C10.03 1 7.06 1 4 1 C4.33 1.66 4.66 2.32 5 3 C7.12576782 3.46651207 7.12576782 3.46651207 9.5625 3.625 C10.38878906 3.69976562 11.21507812 3.77453125 12.06640625 3.8515625 C12.70449219 3.90054688 13.34257812 3.94953125 14 4 C14 4.33 14 4.66 14 5 C10.37 5 6.74 5 3 5 C2.67 5.99 2.34 6.98 2 8 C1.34 5.36 0.68 2.72 0 0 Z " fill="#303238" transform="translate(159,37)"/>
<path d="M0 0 C0 2.31 0 4.62 0 7 C-0.66 7 -1.32 7 -2 7 C-2.33 9.31 -2.66 11.62 -3 14 C-3.33 14 -3.66 14 -4 14 C-4 10.7 -4 7.4 -4 4 C-5.32 3.67 -6.64 3.34 -8 3 C-8 2.34 -8 1.68 -8 1 C-5.10765685 0.17361624 -3.11257569 0 0 0 Z " fill="#323940" transform="translate(44,59)"/>
<path d="M0 0 C1.125 3.75 1.125 3.75 0 6 C-4.44444444 8 -4.44444444 8 -6 8 C-6 6.35 -6 4.7 -6 3 C-4.02 2.01 -2.04 1.02 0 0 Z " fill="#272C37" transform="translate(82,126)"/>
<path d="M0 0 C3.4541387 1.72706935 4.27293065 2.5458613 6 6 C5.01 6 4.02 6 3 6 C2.87625 7.134375 2.7525 8.26875 2.625 9.4375 C2.41875 10.613125 2.2125 11.78875 2 13 C1.01 13.495 1.01 13.495 0 14 C-0.19393875 11.85473901 -0.37998676 9.70876323 -0.5625 7.5625 C-0.71912109 5.77005859 -0.71912109 5.77005859 -0.87890625 3.94140625 C-0.91886719 2.97074219 -0.95882812 2.00007812 -1 1 C-0.67 0.67 -0.34 0.34 0 0 Z " fill="#1E1B1E" transform="translate(73,11)"/>
<path d="M0 0 C0.33 0.66 0.66 1.32 1 2 C2.98 2 4.96 2 7 2 C5.694761 4.61047801 4.64173426 4.68066423 1.9375 5.625 C1.20402344 5.88539062 0.47054687 6.14578125 -0.28515625 6.4140625 C-0.85105469 6.60742188 -1.41695313 6.80078125 -2 7 C-2 5.02 -2 3.04 -2 1 C-1.34 0.67 -0.68 0.34 0 0 Z " fill="#262931" transform="translate(100,104)"/>
<path d="M0 0 C1.36511719 0.29197266 1.36511719 0.29197266 2.7578125 0.58984375 C3.45648438 0.74582031 4.15515625 0.90179688 4.875 1.0625 C4.875 1.3925 4.875 1.7225 4.875 2.0625 C-1.065 2.5575 -1.065 2.5575 -7.125 3.0625 C-7.125 2.0725 -7.125 1.0825 -7.125 0.0625 C-4.4030754 -1.2984623 -2.9418043 -0.64116248 0 0 Z " fill="#20252D" transform="translate(106.125,117.9375)"/>
<path d="M0 0 C3.3 0.33 6.6 0.66 10 1 C7 4 7 4 4.5 4.1875 C3.675 4.125625 2.85 4.06375 2 4 C1.01 4 0.02 4 -1 4 C-0.67 2.68 -0.34 1.36 0 0 Z " fill="#212026" transform="translate(34,57)"/>
<path d="M0 0 C0.99 0 1.98 0 3 0 C3.33 1.32 3.66 2.64 4 4 C2.35 5.32 0.7 6.64 -1 8 C-1.04241723 5.66705225 -1.04092937 3.33297433 -1 1 C-0.67 0.67 -0.34 0.34 0 0 Z " fill="#2A2D32" transform="translate(146,40)"/>
<path d="M0 0 C2.97 0 5.94 0 9 0 C9.33 0.99 9.66 1.98 10 3 C7.03 3 4.06 3 1 3 C0.67 2.01 0.34 1.02 0 0 Z " fill="#1E2329" transform="translate(163,38)"/>
<path d="M0 0 C1.33332095 2.6666419 0.67102033 4.16680303 0 7 C-0.66 7 -1.32 7 -2 7 C-2.33 8.32 -2.66 9.64 -3 11 C-3 7.7 -3 4.4 -3 1 C-2.01 0.67 -1.02 0.34 0 0 Z " fill="#1F1B1E" transform="translate(83,108)"/>
<path d="M0 0 C2.31 0 4.62 0 7 0 C7.33 1.32 7.66 2.64 8 4 C7.01 4.495 7.01 4.495 6 5 C6 4.34 6 3.68 6 3 C4.02 3 2.04 3 0 3 C0 2.01 0 1.02 0 0 Z " fill="#2E333A" transform="translate(65,11)"/>
<path d="M0 0 C0.66 0 1.32 0 2 0 C3.625 2 3.625 2 5 4 C0.25 6 0.25 6 -2 6 C-1.125 1.125 -1.125 1.125 0 0 Z " fill="#1E2026" transform="translate(161,115)"/>
<path d="M0 0 C0.99 0.33 1.98 0.66 3 1 C2.67 3.31 2.34 5.62 2 8 C0.68 7.34 -0.64 6.68 -2 6 C-1.01 5.67 -0.02 5.34 1 5 C0.34 4.34 -0.32 3.68 -1 3 C-1.33 2.34 -1.66 1.68 -2 1 C-1.34 0.67 -0.68 0.34 0 0 Z " fill="#1B1D21" transform="translate(166,8)"/>
<path d="M0 0 C1.32 0.33 2.64 0.66 4 1 C4.33 2.98 4.66 4.96 5 7 C4.01 7 3.02 7 2 7 C2 6.34 2 5.68 2 5 C1.34 4.67 0.68 4.34 0 4 C0 2.68 0 1.36 0 0 Z " fill="#272C36" transform="translate(106,11)"/>
<path d="M0 0 C2.31 0 4.62 0 7 0 C6.67 0.99 6.34 1.98 6 3 C3.69 3 1.38 3 -1 3 C-0.67 2.01 -0.34 1.02 0 0 Z " fill="#252C38" transform="translate(106,0)"/>
<path d="M0 0 C2.97 0 5.94 0 9 0 C9 0.66 9 1.32 9 2 C3.375 3.125 3.375 3.125 0 2 C0 1.34 0 0.68 0 0 Z " fill="#1F242E" transform="translate(141,118)"/>
<path d="M0 0 C1.32 0.33 2.64 0.66 4 1 C3.67 2.65 3.34 4.3 3 6 C2.01 6 1.02 6 0 6 C0 4.02 0 2.04 0 0 Z " fill="#282C35" transform="translate(74,17)"/>
<path d="M0 0 C2.475 0.99 2.475 0.99 5 2 C4.01 2.33 3.02 2.66 2 3 C1.26676204 5.01508358 1.26676204 5.01508358 1 7 C0.01 6.67 -0.98 6.34 -2 6 C-1.34 4.02 -0.68 2.04 0 0 Z " fill="#191B1F" transform="translate(156,2)"/>
<path d="M0 0 C2.0625 0.4375 2.0625 0.4375 4 1 C4 1.99 4 2.98 4 4 C2.35 4 0.7 4 -1 4 C-1 1 -1 1 0 0 Z " fill="#282B31" transform="translate(152,3)"/>
<path d="M0 0 C2.475 0.99 2.475 0.99 5 2 C4.01 3.485 4.01 3.485 3 5 C2.01 5 1.02 5 0 5 C0 3.35 0 1.7 0 0 Z " fill="#232227" transform="translate(150,103)"/>
<path d="M0 0 C2 1 2 1 2 1 Z " fill="#000020" transform="translate(90,159)"/>
<path d="" fill="#000000" transform="translate(0,0)"/>
<path d="" fill="#000000" transform="translate(0,0)"/>
<path d="" fill="#000000" transform="translate(0,0)"/>
<path d="" fill="#000000" transform="translate(0,0)"/>
<path d="" fill="#000000" transform="translate(0,0)"/>
<path d="" fill="#000000" transform="translate(0,0)"/>
<path d="" fill="#000000" transform="translate(0,0)"/>
<path d="" fill="#000000" transform="translate(0,0)"/>
<path d="" fill="#000000" transform="translate(0,0)"/>
<path d="" fill="#000000" transform="translate(0,0)"/>
<path d="" fill="#000000" transform="translate(0,0)"/>
<path d="" fill="#000000" transform="translate(0,0)"/>
<path d="" fill="#000000" transform="translate(0,0)"/>
<path d="" fill="#000000" transform="translate(0,0)"/>
<path d="" fill="#000000" transform="translate(0,0)"/>
<path d="" fill="#000000" transform="translate(0,0)"/>
<path d="" fill="#000000" transform="translate(0,0)"/>
<path d="" fill="#000000" transform="translate(0,0)"/>
<path d="" fill="#000000" transform="translate(0,0)"/>
<path d="" fill="#000000" transform="translate(0,0)"/>
<path d="" fill="#000000" transform="translate(0,0)"/>
<path d="" fill="#000000" transform="translate(0,0)"/>
<path d="" fill="#000000" transform="translate(0,0)"/>
<path d="" fill="#000000" transform="translate(0,0)"/>
<path d="" fill="#000000" transform="translate(0,0)"/>
<path d="" fill="#000000" transform="translate(0,0)"/>
<path d="" fill="#000000" transform="translate(0,0)"/>
<path d="" fill="#000000" transform="translate(0,0)"/>
<path d="" fill="#000000" transform="translate(0,0)"/>
<path d="" fill="#000000" transform="translate(0,0)"/>
<path d="" fill="#000000" transform="translate(0,0)"/>
<path d="" fill="#000000" transform="translate(0,0)"/>
<path d="" fill="#000000" transform="translate(0,0)"/>
<path d="" fill="#000000" transform="translate(0,0)"/>
<path d="" fill="#000000" transform="translate(0,0)"/>
<path d="" fill="#000000" transform="translate(0,0)"/>
<path d="" fill="#000000" transform="translate(0,0)"/>
<path d="" fill="#000000" transform="translate(0,0)"/>
<path d="" fill="#000000" transform="translate(0,0)"/>
<path d="" fill="#000000" transform="translate(0,0)"/>
<path d="" fill="#000000" transform="translate(0,0)"/>
<path d="" fill="#000000" transform="translate(0,0)"/>
<path d="" fill="#000000" transform="translate(0,0)"/>
<path d="" fill="#000000" transform="translate(0,0)"/>
<path d="" fill="#000000" transform="translate(0,0)"/>
<path d="" fill="#000000" transform="translate(0,0)"/>
<path d="" fill="#000000" transform="translate(0,0)"/>
<path d="" fill="#000000" transform="translate(0,0)"/>
<path d="" fill="#000000" transform="translate(0,0)"/>
<path d="" fill="#000000" transform="translate(0,0)"/>
<path d="" fill="#000000" transform="translate(0,0)"/>
<path d="" fill="#000000" transform="translate(0,0)"/>
<path d="" fill="#000000" transform="translate(0,0)"/>
<path d="" fill="#000000" transform="translate(0,0)"/>
<path d="" fill="#000000" transform="translate(0,0)"/>
<path d="" fill="#000000" transform="translate(0,0)"/>
<path d="" fill="#000000" transform="translate(0,0)"/>
<path d="" fill="#000000" transform="translate(0,0)"/>
<path d="" fill="#000000" transform="translate(0,0)"/>
<path d="" fill="#000000" transform="translate(0,0)"/>
<path d="" fill="#000000" transform="translate(0,0)"/>
<path d="" fill="#000000" transform="translate(0,0)"/>
<path d="" fill="#000000" transform="translate(0,0)"/>
<path d="" fill="#000000" transform="translate(0,0)"/>
<path d="" fill="#000000" transform="translate(0,0)"/>
<path d="" fill="#000000" transform="translate(0,0)"/>
<path d="" fill="#000000" transform="translate(0,0)"/>
<path d="" fill="#000000" transform="translate(0,0)"/>
<path d="" fill="#000000" transform="translate(0,0)"/>
<path d="" fill="#000000" transform="translate(0,0)"/>
<path d="" fill="#000000" transform="translate(0,0)"/>
<path d="" fill="#000000" transform="translate(0,0)"/>
<path d="" fill="#000000" transform="translate(0,0)"/>
<path d="" fill="#000000" transform="translate(0,0)"/>
<path d="" fill="#000000" transform="translate(0,0)"/>
<path d="" fill="#000000" transform="translate(0,0)"/>
<path d="" fill="#000000" transform="translate(0,0)"/>
<path d="" fill="#000000" transform="translate(0,0)"/>
<path d="" fill="#000000" transform="translate(0,0)"/>
<path d="" fill="#000000" transform="translate(0,0)"/>
<path d="" fill="#000000" transform="translate(0,0)"/>
<path d="" fill="#000000" transform="translate(0,0)"/>
<path d="" fill="#000000" transform="translate(0,0)"/>
<path d="" fill="#000000" transform="translate(0,0)"/>
<path d="" fill="#000000" transform="translate(0,0)"/>
<path d="" fill="#000000" transform="translate(0,0)"/>
<path d="" fill="#000000" transform="translate(0,0)"/>
<path d="" fill="#000000" transform="translate(0,0)"/>
<path d="" fill="#000000" transform="translate(0,0)"/>
<path d="" fill="#000000" transform="translate(0,0)"/>
<path d="" fill="#000000" transform="translate(0,0)"/>
<path d="" fill="#000000" transform="translate(0,0)"/>
<path d="" fill="#000000" transform="translate(0,0)"/>
<path d="" fill="#000000" transform="translate(0,0)"/>
<path d="" fill="#000000" transform="translate(0,0)"/>
<path d="" fill="#000000" transform="translate(0,0)"/>
<path d="" fill="#000000" transform="translate(0,0)"/>
<path d="" fill="#000000" transform="translate(0,0)"/>
<path d="" fill="#000000" transform="translate(0,0)"/>
<path d="" fill="#000000" transform="translate(0,0)"/>
<path d="" fill="#000000" transform="translate(0,0)"/>
<path d="" fill="#000000" transform="translate(0,0)"/>
<path d="" fill="#000000" transform="translate(0,0)"/>
<path d="" fill="#000000" transform="translate(0,0)"/>
<path d="" fill="#000000" transform="translate(0,0)"/>
<path d="" fill="#000000" transform="translate(0,0)"/>
<path d="" fill="#000000" transform="translate(0,0)"/>
<path d="" fill="#000000" transform="translate(0,0)"/>
<path d="" fill="#000000" transform="translate(0,0)"/>
<path d="" fill="#000000" transform="translate(0,0)"/>
<path d="" fill="#000000" transform="translate(0,0)"/>
<path d="" fill="#000000" transform="translate(0,0)"/>
<path d="" fill="#000000" transform="translate(0,0)"/>
<path d="" fill="#000000" transform="translate(0,0)"/>
<path d="" fill="#000000" transform="translate(0,0)"/>
<path d="" fill="#000000" transform="translate(0,0)"/>
<path d="" fill="#000000" transform="translate(0,0)"/>
<path d="" fill="#000000" transform="translate(0,0)"/>
<path d="" fill="#000000" transform="translate(0,0)"/>
<path d="" fill="#000000" transform="translate(0,0)"/>
<path d="" fill="#000000" transform="translate(0,0)"/>
<path d="" fill="#000000" transform="translate(0,0)"/>
<path d="" fill="#000000" transform="translate(0,0)"/>
<path d="" fill="#000000" transform="translate(0,0)"/>
<path d="" fill="#000000" transform="translate(0,0)"/>
<path d="" fill="#000000" transform="translate(0,0)"/>
<path d="" fill="#000000" transform="translate(0,0)"/>
<path d="" fill="#000000" transform="translate(0,0)"/>
<path d="" fill="#000000" transform="translate(0,0)"/>
<path d="" fill="#000000" transform="translate(0,0)"/>
<path d="" fill="#000000" transform="translate(0,0)"/>
<path d="" fill="#000000" transform="translate(0,0)"/>
<path d="" fill="#000000" transform="translate(0,0)"/>
<path d="" fill="#000000" transform="translate(0,0)"/>
<path d="" fill="#000000" transform="translate(0,0)"/>
<path d="" fill="#000000" transform="translate(0,0)"/>
<path d="" fill="#000000" transform="translate(0,0)"/>
<path d="" fill="#000000" transform="translate(0,0)"/>
<path d="" fill="#000000" transform="translate(0,0)"/>
<path d="" fill="#000000" transform="translate(0,0)"/>
<path d="" fill="#000000" transform="translate(0,0)"/>
<path d="" fill="#000000" transform="translate(0,0)"/>
<path d="" fill="#000000" transform="translate(0,0)"/>
<path d="" fill="#000000" transform="translate(0,0)"/>
<path d="" fill="#000000" transform="translate(0,0)"/>
<path d="" fill="#000000" transform="translate(0,0)"/>
<path d="" fill="#000000" transform="translate(0,0)"/>
<path d="" fill="#000000" transform="translate(0,0)"/>
<path d="" fill="#000000" transform="translate(0,0)"/>
<path d="" fill="#000000" transform="translate(0,0)"/>
<path d="" fill="#000000" transform="translate(0,0)"/>
<path d="" fill="#000000" transform="translate(0,0)"/>
<path d="" fill="#000000" transform="translate(0,0)"/>
<path d="" fill="#000000" transform="translate(0,0)"/>
<path d="" fill="#000000" transform="translate(0,0)"/>
<path d="" fill="#000000" transform="translate(0,0)"/>
<path d="" fill="#000000" transform="translate(0,0)"/>
<path d="" fill="#000000" transform="translate(0,0)"/>
<path d="" fill="#000000" transform="translate(0,0)"/>
<path d="" fill="#000000" transform="translate(0,0)"/>
<path d="" fill="#000000" transform="translate(0,0)"/>
<path d="" fill="#000000" transform="translate(0,0)"/>
<path d="" fill="#000000" transform="translate(0,0)"/>
<path d="" fill="#000000" transform="translate(0,0)"/>
<path d="" fill="#000000" transform="translate(0,0)"/>
<path d="" fill="#000000" transform="translate(0,0)"/>
</svg>
